<svg width="2626" height="1123" viewBox="0 0 2626 1123" fill="none" xmlns="http://www.w3.org/2000/svg">
<path d="M706.915 174.982L158.775 455.856L152.775 659.042L706.915 398L706.915 174.982Z" fill="#203284"/>
<path d="M923.936 718.416L158.483 455.232L152.575 657.264L922.393 933.169L923.936 718.416Z" fill="#28007B"/>
<path d="M739.998 283.305L1356.82 601.862L1356.82 839.21L739.998 518.694L739.998 283.305Z" fill="#15C8A0"/>
<path d="M908.889 181.819L739.572 270.813L739.572 92.8246L908.889 181.819Z" fill="#14F8AA"/>
<path d="M796.011 276.28L953.488 359.456L953.488 193.105L796.011 276.28Z" fill="#15C9A0"/>
<path d="M830.743 109.095L953.883 174.129L953.883 44.0608L830.743 109.095Z" fill="#14F7AB"/>
<path d="M550.15 813.882L1358.51 600.983L1359.8 838.027L551.433 1049.24L550.15 813.882Z" fill="#129695"/>
<path d="M1023.57 326.311C1047.01 326.311 1064.71 329.59 1076.67 336.147C1088.63 342.704 1094.62 354.261 1094.62 370.818C1094.62 380.817 1092.24 389.26 1087.49 396.145C1082.9 403.03 1076.26 407.21 1067.58 408.685V409.915C1073.48 411.062 1078.8 413.111 1083.55 416.062C1088.31 419.013 1092.08 423.275 1094.86 428.848C1097.65 434.422 1099.04 441.799 1099.04 450.979C1099.04 466.88 1093.3 479.338 1081.83 488.354C1070.36 497.37 1054.63 501.878 1034.64 501.878H1001.82H1008.75H969V326.311H1023.57ZM1027.75 395.899C1038.57 395.899 1046.02 394.177 1050.12 390.735C1054.38 387.292 1056.51 382.293 1056.51 375.736C1056.51 369.014 1054.06 364.179 1049.14 361.228C1044.22 358.277 1036.44 356.802 1025.79 356.802H1006.12V395.899H1027.75ZM1006.12 425.406V471.142H1030.46C1041.6 471.142 1049.38 469.011 1053.81 464.749C1058.23 460.323 1060.45 454.503 1060.45 447.29C1060.45 440.733 1058.15 435.487 1053.56 431.553C1049.14 427.455 1041.03 425.406 1029.23 425.406H1006.12Z" fill="white"/>
<path d="M1197.59 365.162C1199.39 365.162 1201.52 365.244 1203.98 365.408C1206.44 365.572 1208.4 365.818 1209.88 366.146L1207.18 400.571C1206.03 400.243 1204.31 399.997 1202.01 399.833C1199.88 399.505 1198 399.341 1196.36 399.341C1190.13 399.341 1184.15 400.489 1178.41 402.784C1172.68 404.915 1168.01 408.439 1164.4 413.357C1160.96 418.275 1159.24 424.996 1159.24 433.52V484.666L1122.61 501.878V367.621H1150.39L1155.8 390.243H1157.52C1161.45 383.358 1166.86 377.457 1173.74 372.539C1180.63 367.621 1188.57 365.162 1197.59 365.162Z" fill="white"/>
<path d="M1357.4 367.621V484.666L1329.37 501.878L1324.46 484.666H1322.49C1318.23 491.551 1312.33 496.551 1304.79 499.665C1297.42 502.78 1289.55 504.337 1281.19 504.337C1266.77 504.337 1255.22 500.485 1246.53 492.78C1237.85 484.912 1233.5 472.371 1233.5 455.159V367.621H1270.13V446.061C1270.13 455.569 1271.85 462.782 1275.29 467.699C1278.74 472.617 1284.23 475.076 1291.76 475.076C1302.91 475.076 1310.53 471.306 1314.63 463.765C1318.72 456.06 1320.77 445.077 1320.77 430.815V367.621H1357.4Z" fill="white"/>
<path d="M1472.01 365.162C1486.43 365.162 1497.98 369.096 1506.67 376.965C1515.36 384.67 1519.7 397.128 1519.7 414.341V484.666L1483.07 501.878V423.439C1483.07 413.767 1481.35 406.554 1477.91 401.8C1474.47 396.882 1468.98 394.423 1461.44 394.423C1450.29 394.423 1442.67 398.276 1438.58 405.98C1434.48 413.521 1432.43 424.422 1432.43 438.684V484.666L1395.8 501.878V367.621H1423.83L1428.74 384.834H1430.71C1434.97 377.949 1440.79 372.949 1448.16 369.834C1455.7 366.719 1463.65 365.162 1472.01 365.162Z" fill="white"/>
<path d="M1679.29 434.504C1679.29 456.798 1673.39 474.011 1661.59 486.141C1649.96 498.272 1634.06 504.337 1613.9 504.337C1601.45 504.337 1590.31 501.633 1580.47 496.223C1570.8 490.813 1563.18 482.945 1557.61 472.617C1552.04 462.126 1549.25 449.421 1549.25 434.504C1549.25 412.21 1555.07 395.079 1566.71 383.112C1578.34 371.145 1594.32 365.162 1614.64 365.162C1627.26 365.162 1638.41 367.867 1648.07 373.277C1657.74 378.686 1665.36 386.555 1670.94 396.882C1676.51 407.046 1679.29 419.586 1679.29 434.504ZM1586.62 434.504C1586.62 447.782 1588.75 457.864 1593.01 464.749C1597.43 471.47 1604.56 474.83 1614.4 474.83C1624.07 474.83 1631.03 471.47 1635.29 464.749C1639.72 457.864 1641.93 447.782 1641.93 434.504C1641.93 421.226 1639.72 411.308 1635.29 404.751C1631.03 398.03 1623.98 394.669 1614.15 394.669C1604.48 394.669 1597.43 398.03 1593.01 404.751C1588.75 411.308 1586.62 421.226 1586.62 434.504Z" fill="white"/>
<path d="M1850.61 494.504L1808.33 364.179H1807.35C1807.51 367.457 1807.75 372.375 1808.08 378.932C1808.41 385.489 1808.74 392.538 1809.07 400.079C1809.39 407.456 1809.56 414.177 1809.56 420.242V484.666L1776.37 501.878V326.311H1827.01L1868.56 460.568H1869.29L1913.3 326.311H1963.93V501.878L1929.27 484.666V418.767C1929.27 413.193 1929.36 406.8 1929.52 399.587C1929.85 392.374 1930.09 385.571 1930.26 379.178C1930.58 372.621 1930.83 367.703 1930.99 364.424H1930.01L1884.78 494.504H1850.61Z" fill="white"/>
<path d="M2023.76 315C2029.17 315 2033.84 316.311 2037.77 318.934C2041.7 321.393 2043.67 326.065 2043.67 332.95C2043.67 339.671 2041.7 344.343 2037.77 346.966C2033.84 349.589 2029.17 350.9 2023.76 350.9C2018.19 350.9 2013.43 349.589 2009.5 346.966C2005.73 344.343 2003.85 339.671 2003.85 332.95C2003.85 326.065 2005.73 321.393 2009.5 318.934C2013.43 316.311 2018.19 315 2023.76 315ZM2041.95 384.834V501.878H2005.32V367.621L2041.95 384.834Z" fill="white"/>
<path d="M2134.79 504.337C2114.8 504.337 2099.31 498.846 2088.33 487.863C2077.52 476.715 2072.11 459.257 2072.11 435.487C2072.11 419.095 2074.89 405.734 2080.47 395.407C2086.04 385.079 2093.74 377.457 2103.57 372.539C2113.57 367.621 2125.04 365.162 2137.99 365.162C2147.17 365.162 2155.12 366.064 2161.83 367.867C2168.72 369.67 2174.7 371.801 2179.78 374.26L2168.96 402.538C2163.23 400.243 2157.82 398.358 2152.74 396.882C2147.82 395.407 2142.91 394.669 2137.99 394.669C2118.98 394.669 2109.47 408.193 2109.47 435.242C2109.47 448.684 2111.93 458.601 2116.85 464.995C2121.93 471.388 2128.98 474.584 2137.99 474.584C2145.69 474.584 2152.49 473.601 2158.39 471.634C2164.29 469.503 2170.03 466.634 2175.6 463.027V494.256C2170.03 497.862 2164.13 500.403 2157.9 501.878C2151.84 503.518 2144.14 504.337 2134.79 504.337Z" fill="white"/>
<path d="M2261.56 364.916C2279.59 364.916 2293.35 368.851 2302.86 376.719C2312.53 384.424 2317.36 396.309 2317.36 412.374V484.666L2291.79 501.878L2284.67 483.682H2283.68C2277.95 490.895 2271.88 496.141 2265.49 499.42C2259.1 502.698 2250.33 504.337 2239.19 504.337C2227.23 504.337 2217.31 500.895 2209.44 494.01C2201.58 486.961 2197.64 476.224 2197.64 461.798C2197.64 447.536 2202.64 437.045 2212.64 430.324C2222.64 423.439 2237.63 419.668 2257.63 419.013L2280.98 418.275V412.374C2280.98 405.325 2279.09 400.161 2275.32 396.882C2271.72 393.604 2266.64 391.964 2260.08 391.964C2253.53 391.964 2247.14 392.948 2240.91 394.915C2234.68 396.718 2228.45 399.013 2222.23 401.8L2210.18 376.965C2217.39 373.195 2225.34 370.244 2234.03 368.113C2242.88 365.982 2252.05 364.916 2261.56 364.916ZM2266.72 440.159C2254.92 440.487 2246.73 442.618 2242.14 446.553C2237.55 450.487 2235.26 455.651 2235.26 462.044C2235.26 467.617 2236.89 471.634 2240.17 474.093C2243.45 476.388 2247.71 477.535 2252.95 477.535C2260.82 477.535 2267.46 475.24 2272.87 470.65C2278.27 465.896 2280.98 459.257 2280.98 450.733V439.668L2266.72 440.159Z" fill="white"/>
<path d="M2391.48 501.878H2354.85V332.95L2391.48 315V501.878Z" fill="white"/>
<path d="M2466.38 501.878H2429.75V332.95L2466.38 315V501.878Z" fill="white"/>
<path d="M2523.09 315C2528.5 315 2533.17 316.311 2537.1 318.934C2541.03 321.393 2543 326.065 2543 332.95C2543 339.671 2541.03 344.343 2537.1 346.966C2533.17 349.589 2528.5 350.9 2523.09 350.9C2517.52 350.9 2512.76 349.589 2508.83 346.966C2505.06 344.343 2503.18 339.671 2503.18 332.95C2503.18 326.065 2505.06 321.393 2508.83 318.934C2512.76 316.311 2517.52 315 2523.09 315ZM2541.28 384.834V501.878H2504.65V367.621L2541.28 384.834Z" fill="white"/>
<path d="M1701.29 593.33C1701.29 613.111 1695.67 628.028 1684.41 638.083C1673.27 648.027 1657.59 653 1637.38 653H1604.27V535.955H1640.98C1653.22 535.955 1663.82 538.141 1672.78 542.512C1681.84 546.884 1688.84 553.332 1693.75 561.856C1698.78 570.271 1701.29 580.762 1701.29 593.33ZM1675.56 593.986C1675.56 580.981 1672.72 571.473 1667.04 565.462C1661.36 559.342 1653.11 556.282 1642.29 556.282H1629.02V632.509H1639.67C1663.6 632.509 1675.56 619.668 1675.56 593.986Z" fill="white"/>
<path d="M1792.94 653H1725.59V535.955H1792.94L1776.37 556.282H1750.33V582.019H1789.99V602.346H1750.33V632.509L1776.37 631.361L1792.94 653Z" fill="white"/>
<path d="M1909.06 535.955L1869.24 653H1842.2L1802.54 535.955L1827.61 542.512L1849.57 605.625C1850.01 606.827 1850.61 609.067 1851.38 612.346C1852.25 615.515 1853.12 618.903 1854 622.509C1854.87 626.006 1855.47 628.957 1855.8 631.361C1856.13 628.957 1856.68 626.006 1857.44 622.509C1858.31 618.903 1859.19 615.515 1860.06 612.346C1860.94 609.067 1861.54 606.827 1861.87 605.625L1883.99 542.512L1909.06 535.955Z" fill="white"/>
</svg>
